<svg xmlns="http://www.w3.org/2000/svg" xmlns:xlink="http://www.w3.org/1999/xlink" version="1.1" id="&#12524;&#12452;&#12516;&#12540;_1" x="0px" y="0px" viewBox="0 0 90 90" enable-background="new 0 0 90 90" xml:space="preserve" height="100px" width="100px">
<circle cx="19" cy="20" r="8"/>
<circle cx="30" cy="60" r="8"/>
<g>
	<path d="M32.9,70h-5.7c-4.5,0-8.1,2.7-8.1,6.9V83h22v-6.1C41,72.7,37.4,70,32.9,70z"/>
</g>
<circle cx="60" cy="60" r="8"/>
<g>
	<path d="M57.1,70h5.7c4.5,0,8.1,2.7,8.1,6.9V83H49v-6.1C49,72.7,52.6,70,57.1,70z"/>
</g>
<polygon points="52,7 52,28 71.9,21 52,34 52,43 82,43 82,7 "/>
<path d="M50,32.8c0-1.9-1.5-3.4-3.4-3.4c-0.7,0-1.3,0.2-1.8,0.5l0,0c0,0-7.6,3.7-9.7,3.7S26.8,30,23.8,30s-7.9,0-7.9,0  C11.4,30,8,33,8,37.5V61h9.8c0-8,4.2-13,12.2-13v-7.9c0,0,3.2,1,5.2,1S47.9,36,47.9,36l0,0C49.1,35.5,50,34.3,50,32.8z"/>
</svg>